# xmcd
#
# Track frame offsets:
#	150
#	12452
#	26226
#	38676
#	52099
#	66353
#	78395
#	92973
#	107135
#	119547
#	132822
#	147444
#	160838
#	174938
#	189450
#	201559
#	215087
#	228324
#	240356
#	255378
#	267870
#	280567
#	293368
#
# Disc length: 4062 seconds
#
# Revision: 1
# Processed by: cddbd v1.5.2PL0 Copyright (c) Steve Scherf et al.
# Submitted via: audiograbber 1.83.01
#
DISCID=4e0fdc17
DTITLE=Hank Snow - Classic Country Favourites
DYEAR=2003
DGENRE=Country
TTITLE0=Wandering On
TTITLE1=The Hobo's Last Ride
TTITLE2=Lonesome Blue Yodel
TTITLE3=My San Antonio Mamma
TTITLE4=The Blue Velvet Band
TTITLE5=Marriage Vow
TTITLE6=The Galveston Ride
TTITLE7=Was There Ever a Pal Like You
TTITLE8=My Little Swiss Maiden
TTITLE9=We Met in the Hills of Old Wyoming
TTITLE10=Someday You'll Care
TTITLE11=The Texas Cowboy
TTITLE12=Bluer Than Blue
TTITLE13=The Broken Wedding Ring
TTITLE14=The Rainbow's End
TTITLE15=We'll Never Say Goodbye
TTITLE16=Blues for Old Hawaii
TTITLE17=I'll Ride Back to Lonesome Valley
TTITLE18=Answer to Blue Velvet Band
TTITLE19=Polka Dot Blues
TTITLE20=Goodnight Little Buckaroo
TTITLE21=Dream Tide
TTITLE22=I'm Sending You Red Roses
EXTD=
EXTT0=
EXTT1=
EXTT2=
EXTT3=
EXTT4=
EXTT5=
EXTT6=
EXTT7=
EXTT8=
EXTT9=
EXTT10=
EXTT11=
EXTT12=
EXTT13=
EXTT14=
EXTT15=
EXTT16=
EXTT17=
EXTT18=
EXTT19=
EXTT20=
EXTT21=
EXTT22=
PLAYORDER=
